<svg width="40" height="40" viewBox="0 0 40 40" fill="none" xmlns="http://www.w3.org/2000/svg">
  <circle cx="20" cy="20" r="20" fill="url(#aiGradient)"/>
  <path d="M20 14C18.9 14 18 14.9 18 16C18 17.1 18.9 18 20 18C21.1 18 22 17.1 22 16C22 14.9 21.1 14 20 14ZM16 20C16 18.9 16.9 18 18 18C19.1 18 20 18.9 20 20C20 21.1 19.1 22 18 22C16.9 22 16 21.1 16 20ZM24 20C24 18.9 24.9 18 26 18C27.1 18 28 18.9 28 20C28 21.1 27.1 22 26 22C24.9 22 24 21.1 24 20ZM20 22C18.9 22 18 22.9 18 24C18 25.1 18.9 26 20 26C21.1 26 22 25.1 22 24C22 22.9 21.1 22 20 22Z" fill="white" opacity="0.9"/>
  <path d="M12 16C12 14.9 12.9 14 14 14C15.1 14 16 14.9 16 16C16 17.1 15.1 18 14 18C12.9 18 12 17.1 12 16Z" fill="white" opacity="0.7"/>
  <path d="M24 16C24 14.9 24.9 14 26 14C27.1 14 28 14.9 28 16C28 17.1 27.1 18 26 18C24.9 18 24 17.1 24 16Z" fill="white" opacity="0.7"/>
  <defs>
    <linearGradient id="aiGradient" x1="0" y1="0" x2="40" y2="40" gradientUnits="userSpaceOnUse">
      <stop offset="0%" stop-color="#00D9FF" stop-opacity="0.8"/>
      <stop offset="100%" stop-color="#A855F7" stop-opacity="0.8"/>
    </linearGradient>
  </defs>
</svg>




